<svg width="42" height="42" viewBox="0 0 42 42" fill="none" xmlns="http://www.w3.org/2000/svg">
<path d="M37.8001 30.0803C37.7374 29.6796 37.5826 29.2988 37.3479 28.968C37.1133 28.6372 36.8052 28.3652 36.4477 28.1735C34.3477 26.9191 32.2477 25.6745 30.1477 24.4397C29.5574 24.0902 28.8668 23.949 28.1867 24.0389C27.5066 24.1288 26.8764 24.4444 26.3971 24.9353C25.8385 25.4939 25.2841 26.0609 24.7171 26.6153C24.221 26.502 23.7471 26.3076 23.3143 26.0399C20.6751 24.3848 18.3908 22.222 16.5943 19.6769C16.0488 18.9616 15.631 18.1573 15.3595 17.2997C15.8635 16.8069 16.3619 16.3085 16.8547 15.8045C17.3075 15.3579 17.6018 14.7756 17.6928 14.1462C17.7838 13.5168 17.6665 12.875 17.3587 12.3185L15.9601 9.65987L13.8601 5.71187C13.6761 5.32872 13.4046 4.99417 13.0676 4.73518C12.7305 4.4762 12.3374 4.30003 11.9197 4.22087C11.5361 4.16798 11.1455 4.20746 10.7802 4.33604C10.4149 4.46461 10.0856 4.67855 9.81974 4.96007C8.32874 6.43427 6.78734 7.97567 5.24174 9.54226C4.66941 10.1481 4.31863 10.9296 4.24634 11.7599C4.13012 12.8579 4.20544 13.9678 4.46894 15.0401C5.07391 17.6498 6.13763 20.1314 7.61054 22.3691C9.33674 25.1117 11.5459 27.6737 14.7757 30.6599C17.412 33.1147 20.4528 35.0955 23.7637 36.5147C25.5986 37.3056 27.5667 37.7417 29.5639 37.7999H29.7109C30.7572 37.8077 31.7642 37.4016 32.5123 36.6701C33.6099 35.5893 34.7047 34.5057 35.7967 33.4193L36.9223 32.2979C37.2305 32.0215 37.4701 31.6773 37.6225 31.2925C37.7748 30.9076 37.8356 30.4926 37.8001 30.0803ZM29.6227 35.8133C27.8729 35.7624 26.1485 35.3804 24.5407 34.6877C21.4457 33.355 18.6039 31.4979 16.1407 29.1983C13.0201 26.3381 10.9201 23.9021 9.29054 21.3023C7.94232 19.2583 6.96685 16.9917 6.40934 14.6075C6.19562 13.7528 6.13027 12.8677 6.21614 11.9909C6.24508 11.5912 6.40954 11.2134 6.68234 10.9199C8.22794 9.36166 9.76094 7.82447 11.2435 6.35447C11.2942 6.29806 11.3555 6.25231 11.424 6.21986C11.4925 6.18741 11.5668 6.16892 11.6425 6.16547C11.7524 6.20223 11.8531 6.26211 11.9379 6.34108C12.0227 6.42005 12.0895 6.51627 12.1339 6.62327L14.0827 10.3193L15.5989 13.2005C15.7161 13.3846 15.764 13.6045 15.734 13.8207C15.704 14.0369 15.598 14.2354 15.4351 14.3807C14.9451 14.9155 14.4369 15.4419 13.9105 15.9599C13.676 16.183 13.5079 16.4667 13.4248 16.7796C13.3418 17.0925 13.3471 17.4222 13.4401 17.7323C13.7718 18.8554 14.3055 19.9086 15.0151 20.8403C16.9584 23.5914 19.4281 25.9297 22.2811 27.7199C22.9315 28.1398 23.6532 28.4373 24.4105 28.5977C24.7022 28.6621 25.0056 28.6499 25.2912 28.5623C25.5767 28.4747 25.8348 28.3147 26.0401 28.0979C26.6155 27.5099 27.1909 26.9219 27.7747 26.3381C27.9462 26.1605 28.1723 26.0458 28.4169 26.0123C28.6614 25.9788 28.91 26.0284 29.1229 26.1533C31.2285 27.3881 33.3285 28.6299 35.4229 29.8787C35.6623 30.0215 35.8093 30.1853 35.8429 30.3281C35.8346 30.4384 35.8034 30.5457 35.7513 30.6433C35.6993 30.741 35.6275 30.8267 35.5405 30.8951L34.2805 32.1551C33.2333 33.1967 32.1833 34.2369 31.1305 35.2757C30.9321 35.4676 30.6949 35.6149 30.4348 35.7076C30.1747 35.8003 29.8979 35.8363 29.6227 35.8133Z" fill="#2EDBAD"/>
</svg>
