<svg width="35" height="24" viewBox="0 0 35 24" fill="none" xmlns="http://www.w3.org/2000/svg">
<path d="M2.22149 0C1.00657 0 0 0.993263 0 2.20819V21.6163C0 22.8313 1.00657 23.8378 2.22149 23.8378H31.8326C33.0475 23.8378 34.0541 22.8313 34.0541 21.6163V2.20819C34.0541 0.993263 33.0475 0 31.8326 0H2.22149ZM2.22149 1.7027H31.8326L17.6522 10.735C17.4088 10.89 16.6452 10.89 16.4018 10.735L2.22149 1.7027ZM1.7027 3.3921L15.4973 12.1717C16.444 12.7745 17.61 12.7745 18.5568 12.1717L32.3514 3.3921V21.6163C32.3514 21.9175 32.1336 22.1351 31.8326 22.1351H2.22149C1.92041 22.1351 1.7027 21.9175 1.7027 21.6163V3.3921Z" fill="#2EDBAD"/>
</svg>
