<svg width="55" height="55" viewBox="0 0 55 55" fill="none" xmlns="http://www.w3.org/2000/svg">
<path d="M45.6077 50C45.9119 49.9999 46.2037 49.879 46.4188 49.6637L49.6641 46.4166C49.8792 46.2014 50 45.9095 50 45.6051C50 45.3008 49.8792 45.0089 49.6641 44.7937L39.9292 35.0536C39.71 34.8462 39.4198 34.7306 39.1181 34.7306C38.8164 34.7306 38.5262 34.8462 38.307 35.0536L37.496 35.8662L34.2105 32.5778C36.9311 29.4289 38.3244 25.3467 38.097 21.1906C37.8696 17.0345 36.0393 13.1289 32.9913 10.296C29.9434 7.46313 25.9158 5.92407 21.7564 6.00288C17.597 6.0817 13.6305 7.77224 10.692 10.7186C7.75346 13.6649 6.07222 17.6371 6.00227 21.7988C5.93232 25.9605 7.47911 29.987 10.317 33.0305C13.1548 36.074 17.0623 37.8971 21.2166 38.1158C25.371 38.3345 29.4481 36.9318 32.5895 34.203L35.8739 37.4892L35.0628 38.3018C34.8478 38.517 34.7269 38.8089 34.7269 39.1133C34.7269 39.4176 34.8478 39.7095 35.0628 39.9247L44.7978 49.6637C45.0126 49.8787 45.3039 49.9996 45.6077 50ZM31.8175 31.8076C29.8923 33.734 27.4394 35.0458 24.769 35.5774C22.0986 36.1089 19.3306 35.8362 16.8151 34.7937C14.2996 33.7513 12.1496 31.9859 10.6369 29.7209C9.12424 27.4558 8.31685 24.7928 8.31685 22.0687C8.31685 19.3445 9.12424 16.6815 10.6369 14.4165C12.1496 12.1514 14.2996 10.3861 16.8151 9.3436C19.3306 8.30115 22.0986 8.02845 24.769 8.55997C27.4394 9.0915 29.8923 10.4034 31.8175 12.3297C33.1071 13.6022 34.1312 15.1185 34.8301 16.7903C35.5291 18.4622 35.8891 20.2564 35.8891 22.0687C35.8891 23.8809 35.5291 25.6751 34.8301 27.347C34.1312 29.0189 33.1071 30.5351 31.8175 31.8076ZM39.1181 37.4892L47.2298 45.6051L45.6077 47.2293L37.496 39.1133L39.1181 37.4892Z" fill="#0D2273"/>
<path d="M29.4177 20.9297C29.4706 20.7352 29.4833 20.5319 29.4549 20.3322C29.4265 20.1326 29.3577 19.9408 29.2527 19.7687L28.1458 17.9374C27.9331 17.5952 27.5976 17.3474 27.208 17.2448C26.8183 17.1422 26.4042 17.1926 26.0506 17.3857L25.7284 17.5644C25.3124 17.2664 24.8641 17.0161 24.392 16.8185V16.5203C24.3877 16.1134 24.2222 15.7248 23.9317 15.4398C23.6412 15.1548 23.2495 14.9966 22.8426 15.0001H20.6271C20.2206 14.9973 19.8296 15.1557 19.5397 15.4407C19.2498 15.7256 19.0845 16.1138 19.0802 16.5203V16.8185C18.6083 17.0163 18.16 17.2665 17.7439 17.5644L17.4225 17.3865C17.0692 17.1932 16.6553 17.1424 16.2657 17.2445C15.8762 17.3466 15.5404 17.5939 15.3273 17.9357L14.217 19.7696C14.1119 19.9415 14.0431 20.1331 14.0147 20.3326C13.9864 20.5321 13.9991 20.7353 14.052 20.9297C14.1058 21.1277 14.1989 21.3128 14.3257 21.4741C14.4525 21.6353 14.6105 21.7693 14.7902 21.8682L15.0738 22.0246C15.0177 22.4962 15.0177 22.9727 15.0738 23.4443L14.7902 23.6007C14.6105 23.6995 14.4525 23.8336 14.3257 23.9948C14.1989 24.156 14.1058 24.3412 14.052 24.5391C13.9991 24.7337 13.9864 24.937 14.0148 25.1366C14.0431 25.3363 14.112 25.528 14.217 25.7001L15.3239 27.5315C15.5366 27.8737 15.8721 28.1215 16.2617 28.2241C16.6514 28.3267 17.0655 28.2763 17.4191 28.0832L17.7413 27.9044C18.1573 28.2025 18.6056 28.4527 19.0777 28.6504V28.9486C19.082 29.3555 19.2475 29.7441 19.538 30.0291C19.8285 30.3141 20.2202 30.4722 20.6271 30.4688H22.8426C23.2491 30.4716 23.6401 30.3131 23.93 30.0282C24.2199 29.7433 24.3851 29.355 24.3895 28.9486V28.6504C24.8614 28.4525 25.3097 28.2023 25.7258 27.9044L26.0472 28.0823C26.4004 28.2763 26.8144 28.3274 27.2042 28.2253C27.594 28.1231 27.9297 27.8754 28.1423 27.5332L29.2501 25.6993C29.3552 25.5273 29.424 25.3357 29.4524 25.1362C29.4808 24.9367 29.4681 24.7335 29.4151 24.5391C29.3613 24.3412 29.2683 24.156 29.1414 23.9948C29.0146 23.8336 28.8566 23.6995 28.6769 23.6007L28.3933 23.4443C28.4494 22.9727 28.4494 22.4962 28.3933 22.0246L28.6769 21.8682C28.8571 21.7696 29.0156 21.6357 29.1429 21.4744C29.2701 21.3132 29.3636 21.1279 29.4177 20.9297ZM26.7192 22.7344C26.7189 22.9464 26.7037 23.158 26.6737 23.3678C26.6348 23.6692 26.6878 23.9754 26.8258 24.2462C26.9638 24.517 27.1804 24.7398 27.4471 24.8854L27.6628 25.004L26.7545 26.5088L26.4743 26.3541C26.207 26.2108 25.9046 26.1464 25.6021 26.1683C25.2997 26.1902 25.0097 26.2976 24.7659 26.4779C24.4252 26.7276 24.0545 26.9335 23.6624 27.0906C23.3742 27.1999 23.1256 27.3935 22.9488 27.6461C22.7721 27.8987 22.6755 28.1986 22.6716 28.5069V28.7501H20.7964V28.5069C20.7925 28.1988 20.696 27.8991 20.5194 27.6467C20.3428 27.3942 20.0944 27.2008 19.8064 27.0915C19.4139 26.934 19.0429 26.7275 18.7021 26.477C18.4577 26.2972 18.1674 26.1902 17.8648 26.1684C17.5622 26.1467 17.2595 26.2111 16.992 26.3541L16.7135 26.5088L15.8052 25.004L16.0217 24.8846C16.2884 24.7391 16.5049 24.5164 16.6429 24.2458C16.781 23.9751 16.834 23.6691 16.7952 23.3678C16.7344 22.9477 16.7344 22.5211 16.7952 22.1011C16.8341 21.7996 16.781 21.4935 16.643 21.2227C16.505 20.9519 16.2885 20.7291 16.0217 20.5834L15.8052 20.4648L16.7135 18.9601L16.9937 19.1147C17.2608 19.2584 17.5633 19.3231 17.8659 19.3012C18.1684 19.2793 18.4585 19.1717 18.7021 18.991C19.0427 18.7412 19.4135 18.5354 19.8056 18.3783C20.0938 18.2689 20.3424 18.0754 20.5191 17.8228C20.6959 17.5702 20.7925 17.2703 20.7964 16.962V16.7188H22.6733V16.962C22.6772 17.27 22.7737 17.5698 22.9503 17.8222C23.1269 18.0746 23.3753 18.2681 23.6633 18.3774C24.0558 18.5349 24.4268 18.7414 24.7676 18.9919C25.0119 19.1719 25.3022 19.279 25.6049 19.3007C25.9076 19.3225 26.2102 19.258 26.4777 19.1147L26.7562 18.9601L27.6645 20.4648L27.448 20.5843C27.1813 20.7298 26.9648 20.9524 26.8268 21.2231C26.6887 21.4937 26.6357 21.7998 26.6745 22.1011C26.7042 22.3109 26.7192 22.5225 26.7192 22.7344Z" fill="#0D2273"/>
<path d="M21.7344 19.2969C21.0545 19.2969 20.3899 19.4985 19.8246 19.8762C19.2593 20.2539 18.8187 20.7908 18.5585 21.4189C18.2984 22.047 18.2303 22.7382 18.3629 23.405C18.4956 24.0718 18.823 24.6843 19.3037 25.1651C19.7844 25.6458 20.3969 25.9732 21.0638 26.1058C21.7306 26.2385 22.4217 26.1704 23.0499 25.9102C23.678 25.65 24.2148 25.2094 24.5926 24.6441C24.9703 24.0789 25.1719 23.4142 25.1719 22.7344C25.1719 21.8227 24.8097 20.9484 24.1651 20.3037C23.5204 19.659 22.6461 19.2969 21.7344 19.2969ZM21.7344 24.4531C21.3944 24.4531 21.0621 24.3523 20.7795 24.1635C20.4968 23.9746 20.2765 23.7062 20.1465 23.3921C20.0164 23.0781 19.9823 22.7325 20.0487 22.3991C20.115 22.0657 20.2787 21.7594 20.519 21.519C20.7594 21.2787 21.0657 21.115 21.3991 21.0487C21.7325 20.9823 22.0781 21.0164 22.3921 21.1465C22.7062 21.2765 22.9746 21.4968 23.1635 21.7795C23.3523 22.0621 23.4531 22.3944 23.4531 22.7344C23.4531 23.1902 23.272 23.6274 22.9497 23.9497C22.6274 24.272 22.1902 24.4531 21.7344 24.4531Z" fill="#0D2273"/>
</svg>
