<svg width="51" height="51" viewBox="0 0 51 51" fill="none" xmlns="http://www.w3.org/2000/svg">
<path d="M44.5389 36.4283C44.5184 36.4296 44.4981 36.4246 44.4804 36.4141C44.4628 36.4036 44.4487 36.388 44.4401 36.3694C44.2788 35.8545 44.0713 35.3552 43.8202 34.8776C43.8122 34.8575 43.8107 34.8355 43.8159 34.8145C43.821 34.7935 43.8325 34.7746 43.8488 34.7605C44.1629 34.4449 44.3391 34.0179 44.3391 33.5727C44.3391 33.1276 44.1629 32.7005 43.8488 32.385L42.5228 31.0598C42.3675 30.9027 42.1825 30.7781 41.9785 30.6933C41.7745 30.6084 41.5556 30.5651 41.3347 30.5657C41.1135 30.5651 40.8945 30.6084 40.6902 30.6933C40.486 30.7781 40.3006 30.9027 40.145 31.0598C40.1312 31.0757 40.1128 31.0868 40.0924 31.0917C40.0719 31.0965 40.0505 31.0949 40.031 31.0869C39.5533 30.8355 39.0537 30.628 38.5385 30.4669C38.5196 30.4583 38.5038 30.4441 38.4932 30.4264C38.4825 30.4086 38.4775 30.388 38.4787 30.3673C38.4781 29.9217 38.3007 29.4946 37.9854 29.1796C37.6702 28.8647 37.2429 28.6877 36.7973 28.6875H36.6562V2.39062C36.6562 2.17928 36.5723 1.97659 36.4229 1.82715C36.2734 1.67771 36.0707 1.59375 35.8594 1.59375H5.57812C5.36678 1.59375 5.16409 1.67771 5.01465 1.82715C4.86521 1.97659 4.78125 2.17928 4.78125 2.39062V43.8281C4.78125 44.0395 4.86521 44.2422 5.01465 44.3916C5.16409 44.541 5.36678 44.625 5.57812 44.625H27.3902C27.4117 45.0326 27.5818 45.4181 27.8683 45.7088L29.1943 47.034C29.3496 47.1911 29.5347 47.3157 29.7387 47.4005C29.9427 47.4853 30.1615 47.5287 30.3825 47.528C30.6036 47.5287 30.8227 47.4853 31.0269 47.4005C31.2312 47.3157 31.4165 47.1911 31.5722 47.034C31.5864 47.0187 31.6048 47.0081 31.6251 47.0032C31.6453 46.9984 31.6666 46.9997 31.6861 47.0069C32.1639 47.2582 32.6634 47.4657 33.1787 47.6268C33.1975 47.6355 33.2133 47.6496 33.224 47.6674C33.2347 47.6852 33.2397 47.7057 33.2385 47.7264C33.2391 48.1723 33.4167 48.5997 33.7323 48.9147C34.0479 49.2297 34.4756 49.4065 34.9215 49.4062H36.7973C37.2428 49.4058 37.6699 49.2287 37.9849 48.9138C38.3 48.5989 38.4773 48.1719 38.4779 47.7264C38.4766 47.706 38.4814 47.6857 38.4918 47.6681C38.5022 47.6505 38.5176 47.6364 38.5361 47.6276C39.0516 47.4663 39.5515 47.2585 40.0294 47.0069C40.0491 46.9993 40.0707 46.9979 40.0912 47.0029C40.1117 47.0078 40.1302 47.019 40.1442 47.0347C40.3 47.1914 40.4853 47.3156 40.6893 47.4003C40.8934 47.4849 41.1122 47.5284 41.3331 47.528C41.5538 47.5286 41.7725 47.4853 41.9763 47.4006C42.1802 47.316 42.3651 47.1916 42.5205 47.0347L43.848 45.708C44.1623 45.3924 44.3387 44.9652 44.3387 44.5198C44.3387 44.0745 44.1623 43.6472 43.848 43.3317C43.8325 43.3175 43.8217 43.2989 43.817 43.2784C43.8123 43.2579 43.814 43.2365 43.8218 43.2169C44.0761 42.7324 44.2855 42.2256 44.4473 41.7029C44.4529 41.6837 44.484 41.663 44.5405 41.663C44.9853 41.662 45.4116 41.4848 45.7261 41.1703C46.0406 40.8558 46.2177 40.4296 46.2188 39.9848V38.109C46.2183 37.6635 46.0412 37.2364 45.7263 36.9213C45.4114 36.6063 44.9844 36.429 44.5389 36.4283ZM6.375 43.0312V3.1875H35.0625V28.6875H34.9215C34.6994 28.6883 34.4796 28.733 34.2749 28.819C34.0701 28.9049 33.8843 29.0304 33.7282 29.1884C33.572 29.3463 33.4486 29.5335 33.365 29.7392C33.2813 29.9449 33.2392 30.1652 33.2408 30.3872C33.2417 30.4019 33.2385 30.4164 33.2316 30.4294C33.2247 30.4423 33.2144 30.4531 33.2018 30.4605C32.6788 30.622 32.1719 30.8316 31.6877 31.0869C31.6681 31.0947 31.6465 31.0962 31.6259 31.0912C31.6054 31.0862 31.5869 31.075 31.573 31.059C31.4172 30.9024 31.2319 30.7781 31.0278 30.6935C30.8238 30.6088 30.605 30.5654 30.384 30.5657C30.1633 30.5651 29.9447 30.6084 29.7408 30.6931C29.537 30.7778 29.352 30.9022 29.1967 31.059L27.8691 32.3858C27.5549 32.7014 27.3784 33.1286 27.3784 33.5739C27.3784 34.0193 27.5549 34.4465 27.8691 34.7621C27.8846 34.7763 27.8954 34.7948 27.9002 34.8153C27.9051 34.8358 27.9037 34.8572 27.8962 34.8768C27.6446 35.3546 27.4369 35.8541 27.2754 36.3694C27.2668 36.388 27.2528 36.4036 27.2351 36.4141C27.2175 36.4246 27.1971 36.4296 27.1766 36.4283C26.7317 36.4298 26.3055 36.6075 25.9913 36.9225C25.6771 37.2374 25.5004 37.664 25.5 38.109V39.9848C25.5004 40.4303 25.6775 40.8574 25.9924 41.1724C26.3073 41.4875 26.7344 41.6648 27.1798 41.6654C27.2003 41.6642 27.2207 41.6691 27.2383 41.6796C27.256 41.6901 27.27 41.7057 27.2786 41.7244C27.4215 42.1733 27.5995 42.6103 27.8109 43.0312H6.375ZM44.625 39.9848C44.625 40.0326 44.586 40.0717 44.5198 40.0717C44.1647 40.0689 43.8182 40.1804 43.5312 40.3896C43.2443 40.5988 43.0321 40.8946 42.9261 41.2335C42.7935 41.6626 42.6214 42.0785 42.4121 42.4758C42.2446 42.796 42.1845 43.1616 42.2406 43.5186C42.2967 43.8756 42.466 44.205 42.7237 44.4585C42.74 44.4749 42.7491 44.4971 42.7491 44.5202C42.7491 44.5434 42.74 44.5655 42.7237 44.582L41.3945 45.908H41.271C41.0175 45.6496 40.6875 45.4799 40.3299 45.4239C39.9723 45.3679 39.6062 45.4287 39.2859 45.5972C38.8935 45.8037 38.483 45.9739 38.0595 46.1056C37.7158 46.2143 37.416 46.4305 37.2041 46.7222C36.9923 47.0139 36.8796 47.3659 36.8826 47.7264C36.8824 47.7493 36.8731 47.7712 36.8568 47.7873C36.8406 47.8035 36.8186 47.8125 36.7957 47.8125H34.9215C34.8986 47.8125 34.8766 47.8035 34.8603 47.7873C34.844 47.7712 34.8348 47.7493 34.8346 47.7264C34.8374 47.3656 34.7244 47.0134 34.5123 46.7216C34.3002 46.4297 34.0001 46.2135 33.656 46.1048C33.2337 45.9731 32.8243 45.8032 32.4328 45.5972C32.1929 45.4704 31.9256 45.4042 31.6543 45.4043C31.4302 45.4048 31.2084 45.4495 31.0016 45.5359C30.7948 45.6224 30.6072 45.7488 30.4494 45.908H30.3267L28.9983 44.5828C28.9901 44.5746 28.9836 44.5649 28.9792 44.5543C28.9747 44.5436 28.9724 44.5322 28.9724 44.5206C28.9724 44.5091 28.9747 44.4976 28.9792 44.487C28.9836 44.4763 28.9901 44.4666 28.9983 44.4585C29.2563 44.2048 29.4258 43.8748 29.4818 43.5173C29.5378 43.1598 29.4772 42.7938 29.3091 42.4734C29.1031 42.0813 28.9329 41.6714 28.8007 41.2486C28.6924 40.9045 28.4765 40.6041 28.1847 40.392C27.8929 40.1798 27.5406 40.0669 27.1798 40.0701C27.1572 40.0699 27.1355 40.0608 27.1195 40.0449C27.1034 40.029 27.0942 40.0074 27.0938 39.9848V38.109C27.0937 38.0861 27.1028 38.0641 27.1189 38.0478C27.135 38.0315 27.1569 38.0223 27.1798 38.0221C27.5406 38.0252 27.8929 37.9124 28.1847 37.7002C28.4765 37.488 28.6924 37.1877 28.8007 36.8435C28.933 36.4204 29.1034 36.0102 29.3099 35.6179C29.4773 35.2977 29.5375 34.9322 29.4813 34.5752C29.4252 34.2182 29.2559 33.8887 28.9983 33.6353C28.982 33.6189 28.9728 33.5967 28.9728 33.5735C28.9728 33.5504 28.982 33.5282 28.9983 33.5118L30.3251 32.1858H30.4486C30.7022 32.4434 31.0319 32.6127 31.3891 32.6685C31.7463 32.7243 32.1119 32.6638 32.432 32.4958C32.8296 32.287 33.2455 32.115 33.6743 31.9818C34.0162 31.8739 34.3141 31.6582 34.5233 31.3671C34.7326 31.076 34.842 30.725 34.8354 30.3665C34.8358 30.3439 34.845 30.3223 34.8611 30.3064C34.8772 30.2905 34.8988 30.2815 34.9215 30.2812H36.7973C36.8202 30.2812 36.8422 30.2903 36.8584 30.3064C36.8747 30.3225 36.8839 30.3444 36.8842 30.3673C36.8814 30.7281 36.9943 31.0803 37.2064 31.3722C37.4186 31.6641 37.7187 31.8802 38.0627 31.989C38.4859 32.1205 38.8961 32.2904 39.2883 32.4966C39.6084 32.665 39.9742 32.7257 40.3315 32.6697C40.6888 32.6137 41.0185 32.444 41.2718 32.1858H41.3945L42.7205 33.511C42.7287 33.5191 42.7352 33.5288 42.7396 33.5395C42.744 33.5501 42.7463 33.5616 42.7463 33.5731C42.7463 33.5847 42.744 33.5961 42.7396 33.6068C42.7352 33.6175 42.7287 33.6272 42.7205 33.6353C42.4624 33.889 42.2929 34.2189 42.2369 34.5764C42.181 34.9339 42.2415 35.2999 42.4097 35.6203C42.6157 36.0124 42.7859 36.4224 42.9181 36.8451C43.0263 37.1893 43.2423 37.4896 43.5341 37.7018C43.8259 37.914 44.1782 38.0268 44.5389 38.0237C44.5618 38.0239 44.5837 38.0331 44.5998 38.0494C44.616 38.0657 44.625 38.0876 44.625 38.1105V39.9848Z" fill="#0D2273"/>
<path d="M35.8594 33.4688C34.7561 33.4688 33.6777 33.7959 32.7603 34.4088C31.843 35.0218 31.1281 35.893 30.7059 36.9122C30.2837 37.9315 30.1732 39.0531 30.3884 40.1351C30.6037 41.2172 31.1349 42.2111 31.915 42.9912C32.6952 43.7713 33.6891 44.3026 34.7711 44.5178C35.8532 44.7331 36.9748 44.6226 37.994 44.2004C39.0133 43.7782 39.8845 43.0632 40.4974 42.1459C41.1103 41.2286 41.4375 40.1501 41.4375 39.0469C41.4358 37.568 40.8476 36.1501 39.8018 35.1044C38.7561 34.0587 37.3383 33.4704 35.8594 33.4688ZM35.8594 43.0312C35.0713 43.0312 34.301 42.7976 33.6458 42.3598C32.9906 41.922 32.4799 41.2997 32.1783 40.5716C31.8767 39.8436 31.7978 39.0425 31.9516 38.2696C32.1053 37.4967 32.4848 36.7867 33.042 36.2295C33.5992 35.6723 34.3092 35.2928 35.0821 35.1391C35.855 34.9853 36.6561 35.0642 37.3841 35.3658C38.1122 35.6674 38.7345 36.178 39.1723 36.8333C39.6101 37.4885 39.8438 38.2588 39.8438 39.0469C39.8425 40.1032 39.4223 41.1159 38.6754 41.8629C37.9284 42.6098 36.9157 43.03 35.8594 43.0312Z" fill="#0D2273"/>
<path d="M11.4293 13.8768L10.3026 12.7501L9.17578 13.8768L10.866 15.567C11.0154 15.7164 11.218 15.8003 11.4293 15.8003C11.6406 15.8003 11.8433 15.7164 11.9927 15.567L16.5007 11.0599L15.3739 9.93311L11.4293 13.8768Z" fill="#0D2273"/>
<path d="M11.4293 24.2362L10.3026 23.1094L9.17578 24.2362L10.866 25.9264C11.0154 26.0758 11.218 26.1597 11.4293 26.1597C11.6406 26.1597 11.8433 26.0758 11.9927 25.9264L16.5007 21.4193L15.3739 20.2925L11.4293 24.2362Z" fill="#0D2273"/>
<path d="M11.4293 34.5956L10.3026 33.4688L9.17578 34.5956L10.866 36.2858C11.0154 36.4352 11.218 36.5191 11.4293 36.5191C11.6406 36.5191 11.8433 36.4352 11.9927 36.2858L16.5007 31.7786L15.3739 30.6519L11.4293 34.5956Z" fill="#0D2273"/>
<path d="M32.6719 11.9531H19.125V13.5469H32.6719V11.9531Z" fill="#0D2273"/>
<path d="M32.6719 22.3125H19.125V23.9062H32.6719V22.3125Z" fill="#0D2273"/>
<path d="M25.5 32.6719H19.125V34.2656H25.5V32.6719Z" fill="#0D2273"/>
</svg>
