<svg width="50" height="50" viewBox="0 0 50 50" fill="none" xmlns="http://www.w3.org/2000/svg">
<path d="M34.3761 31.4929V44.7421C34.3761 47.6358 32.0119 50 29.1182 50H9.37607C6.48232 50 4.11816 47.6358 4.11816 44.7421V5.25688C4.11816 2.36724 6.48643 0 9.37607 0H29.1182C32.0099 0 34.3761 2.36724 34.3761 5.25688V13.1607H42.8362C44.5155 13.1607 45.8832 14.5284 45.8832 16.2077V28.446C45.8832 30.1252 44.5155 31.4929 42.8362 31.4929H34.3761ZM5.86017 40.1475H32.6341V32.1058L26.2357 35.2783C25.6362 35.5734 24.9472 35.1076 24.9842 34.4546L24.9832 31.4929H23.7111C22.0319 31.4929 20.6642 30.1252 20.6642 28.446V16.2077C20.6642 14.5284 22.0319 13.1607 23.7111 13.1607H32.6341V9.27564H5.86017V40.1475ZM32.6341 41.8895H5.86017V44.7421C5.86017 46.6733 7.44485 48.258 9.37607 48.258H29.1182C31.0494 48.258 32.6341 46.6733 32.6341 44.7421V41.8895ZM5.86017 7.53363H32.6341V5.25688C32.6341 3.3236 31.0525 1.74201 29.1182 1.74201H9.37607C7.44382 1.74201 5.86017 3.32463 5.86017 5.25688V7.53363ZM42.8362 14.9027H23.7111C22.9944 14.9027 22.4062 15.4909 22.4062 16.2077V28.446C22.4062 29.1627 22.9944 29.7509 23.7111 29.7509H25.8501C26.3283 29.755 26.717 30.1438 26.717 30.6219L26.718 33.1013L33.2284 29.8733C33.359 29.7952 33.5102 29.7509 33.6727 29.7509H42.8362C43.553 29.7509 44.1412 29.1627 44.1412 28.446V16.2077C44.1412 15.4909 43.553 14.9027 42.8362 14.9027Z" fill="#0D2273"/>
<path d="M28.8866 20.9329C28.4064 20.9329 28.0156 20.5422 28.0156 20.0619C28.0156 19.5817 28.4064 19.1909 28.8866 19.1909H37.6604C38.1407 19.1909 38.5314 19.5817 38.5314 20.0619C38.5314 20.5422 38.1407 20.9329 37.6604 20.9329H28.8866Z" fill="#0D2273"/>
<path d="M28.8866 25.4637C28.4064 25.4637 28.0156 25.0729 28.0156 24.5927C28.0156 24.1124 28.4064 23.7217 28.8866 23.7217H37.6604C38.1407 23.7217 38.5314 24.1124 38.5314 24.5927C38.5314 25.0729 38.1407 25.4637 37.6604 25.4637H28.8866Z" fill="#0D2273"/>
<path d="M19.2457 46.4461C20.1096 46.4461 20.8099 45.7458 20.8099 44.882C20.8099 44.0181 20.1096 43.3179 19.2457 43.3179C18.3819 43.3179 17.6816 44.0181 17.6816 44.882C17.6816 45.7458 18.3819 46.4461 19.2457 46.4461Z" fill="#0D2273"/>
</svg>
