<svg width="64" height="64" viewBox="0 0 64 64" fill="none" xmlns="http://www.w3.org/2000/svg">
<path d="M47.7719 45.7597C47.7026 45.7589 47.634 45.7465 47.5688 45.7228L25.6981 38.012C25.5887 37.9778 25.491 37.9137 25.416 37.8269C25.3411 37.7401 25.2919 37.6341 25.274 37.5209C25.2561 37.4076 25.2702 37.2916 25.3147 37.186C25.3591 37.0803 25.4323 36.9891 25.5258 36.9228L55.4335 13.7782L17.4273 34.8366C17.3438 34.877 17.2523 34.8979 17.1596 34.8979C17.0669 34.8979 16.9754 34.877 16.8919 34.8366L1.60577 28.4551C1.48644 28.405 1.38594 28.3186 1.31854 28.2081C1.25115 28.0977 1.2203 27.9687 1.23039 27.8397C1.23641 27.7127 1.28166 27.5906 1.3599 27.4903C1.43814 27.39 1.54554 27.3165 1.66731 27.2797L61.975 8.78126C62.0774 8.75065 62.1865 8.75065 62.2888 8.78126C62.4243 8.81647 62.5437 8.89678 62.6273 9.00895C62.6422 9.03261 62.6586 9.05523 62.6765 9.07665C62.7319 9.17827 62.7575 9.29345 62.7504 9.40895C62.7562 9.45183 62.7562 9.49531 62.7504 9.53819C62.753 9.56273 62.753 9.58749 62.7504 9.61203L48.3442 45.372C48.2986 45.4865 48.2197 45.5847 48.1177 45.6538C48.0156 45.723 47.8952 45.7598 47.7719 45.7597ZM27.175 37.2305L47.4212 44.3628L60.7381 11.2551L27.175 37.2305ZM3.64885 27.9997L17.0888 33.6366L56.6889 11.692L3.64885 27.9997Z" fill="#0D2273"/>
<path d="M21.6918 55.2307C21.5496 55.2342 21.4105 55.1883 21.2983 55.1008C21.1861 55.0133 21.1077 54.8896 21.0764 54.7507L16.5287 34.4615C16.4984 34.3045 16.5304 34.1419 16.6179 34.0081C16.7054 33.8743 16.8416 33.7798 16.9975 33.7446C17.1535 33.7094 17.317 33.7363 17.4535 33.8196C17.59 33.9028 17.6887 34.036 17.7287 34.1908L21.7164 51.9569L25.3041 37.3169C25.3434 37.1587 25.4439 37.0225 25.5835 36.9382C25.7231 36.854 25.8904 36.8286 26.0487 36.8677C26.207 36.907 26.3432 37.0074 26.4274 37.147C26.5116 37.2866 26.537 37.454 26.498 37.6123L22.2887 54.7692C22.2546 54.9015 22.1774 55.0186 22.0693 55.1022C21.9612 55.1858 21.8284 55.231 21.6918 55.2307Z" fill="#0D2273"/>
<path d="M21.692 55.2308C21.6111 55.2313 21.5308 55.2157 21.4558 55.1851C21.3808 55.1545 21.3126 55.1094 21.2551 55.0523C21.1405 54.937 21.0762 54.7811 21.0762 54.6185C21.0762 54.4559 21.1405 54.2999 21.2551 54.1846L34.9597 40.3446C35.0169 40.2869 35.085 40.2412 35.16 40.2099C35.235 40.1787 35.3154 40.1626 35.3967 40.1626C35.4779 40.1626 35.5583 40.1787 35.6333 40.2099C35.7083 40.2412 35.7764 40.2869 35.8336 40.3446C35.9482 40.4599 36.0125 40.6159 36.0125 40.7785C36.0125 40.9411 35.9482 41.097 35.8336 41.2123L22.1536 55.0523C22.0932 55.1124 22.021 55.1593 21.9415 55.19C21.8621 55.2207 21.7771 55.2346 21.692 55.2308Z" fill="#0D2273"/>
</svg>
