<svg width="56" height="56" viewBox="0 0 56 56" fill="none" xmlns="http://www.w3.org/2000/svg">
<path d="M21.3337 23.3332H34.667C35.0403 23.3332 35.3337 23.0398 35.3337 22.6665V18.6665C35.3337 15.6398 33.4803 13.0265 30.8537 11.9065C32.7203 10.8932 34.0003 8.93317 34.0003 6.6665C34.0003 3.35984 31.307 0.666504 28.0003 0.666504C24.6937 0.666504 22.0003 3.35984 22.0003 6.6665C22.0003 8.93317 23.2803 10.8932 25.147 11.9065C22.5203 13.0265 20.667 15.6265 20.667 18.6665V22.6665C20.667 23.0398 20.9603 23.3332 21.3337 23.3332ZM23.3337 6.6665C23.3337 4.09317 25.427 1.99984 28.0003 1.99984C30.5737 1.99984 32.667 4.09317 32.667 6.6665C32.667 9.23983 30.5737 11.3332 28.0003 11.3332C25.427 11.3332 23.3337 9.23983 23.3337 6.6665ZM22.0003 18.6665C22.0003 15.3598 24.6937 12.6665 28.0003 12.6665C31.307 12.6665 34.0003 15.3598 34.0003 18.6665V21.9998H22.0003V18.6665Z" fill="#0D2273"/>
<path d="M1.33366 55.3332H14.667C15.0403 55.3332 15.3337 55.0398 15.3337 54.6665V50.6665C15.3337 47.6398 13.4803 45.0265 10.8537 43.9065C12.7203 42.8932 14.0003 40.9332 14.0003 38.6665C14.0003 35.3598 11.307 32.6665 8.00033 32.6665C4.69366 32.6665 2.00033 35.3598 2.00033 38.6665C2.00033 40.9332 3.28033 42.8932 5.14699 43.9065C2.52033 45.0265 0.666992 47.6398 0.666992 50.6665V54.6665C0.666992 55.0398 0.960326 55.3332 1.33366 55.3332ZM3.33366 38.6665C3.33366 36.0932 5.42699 33.9998 8.00033 33.9998C10.5737 33.9998 12.667 36.0932 12.667 38.6665C12.667 41.2398 10.5737 43.3332 8.00033 43.3332C5.42699 43.3332 3.33366 41.2398 3.33366 38.6665ZM2.00033 50.6665C2.00033 47.3598 4.69366 44.6665 8.00033 44.6665C11.307 44.6665 14.0003 47.3598 14.0003 50.6665V53.9998H2.00033V50.6665Z" fill="#0D2273"/>
<path d="M50.8537 43.9065C52.7203 42.8932 54.0003 40.9332 54.0003 38.6665C54.0003 35.3598 51.307 32.6665 48.0003 32.6665C44.6937 32.6665 42.0003 35.3598 42.0003 38.6665C42.0003 40.9332 43.2803 42.8932 45.147 43.9065C42.5203 45.0265 40.667 47.6265 40.667 50.6665V54.6665C40.667 55.0398 40.9603 55.3332 41.3337 55.3332H54.667C55.0403 55.3332 55.3337 55.0398 55.3337 54.6665V50.6665C55.3337 47.6398 53.4803 45.0265 50.8537 43.9065ZM43.3337 38.6665C43.3337 36.0932 45.427 33.9998 48.0003 33.9998C50.5737 33.9998 52.667 36.0932 52.667 38.6665C52.667 41.2398 50.5737 43.3332 48.0003 43.3332C45.427 43.3332 43.3337 41.2398 43.3337 38.6665ZM54.0003 53.9998H42.0003V50.6665C42.0003 47.3598 44.6937 44.6665 48.0003 44.6665C51.307 44.6665 54.0003 47.3598 54.0003 50.6665V53.9998Z" fill="#0D2273"/>
<path d="M17.6934 44.56L28.0001 38.12L38.3201 44.56C38.4268 44.6267 38.5468 44.6667 38.6668 44.6667C38.8934 44.6667 39.1067 44.56 39.2267 44.36C39.4267 44.0533 39.3334 43.64 39.0134 43.44L28.6668 36.9733V26.6667C28.6668 26.2933 28.3734 26 28.0001 26C27.6268 26 27.3334 26.2933 27.3334 26.6667V36.96L16.9734 43.4267C16.6668 43.6267 16.5601 44.0267 16.7601 44.3467C16.9601 44.6667 17.3734 44.76 17.6934 44.56Z" fill="#0D2273"/>
</svg>
