<svg width="47" height="47" viewBox="0 0 47 47" fill="none" xmlns="http://www.w3.org/2000/svg">
<path d="M36.8183 30.4226L29.4245 28.7478C29.0176 28.656 28.7335 28.2998 28.7335 27.8826V25.4659C31.7124 23.5123 33.7114 19.9446 33.7114 15.8742C33.7114 9.71276 29.1329 4.7002 23.5052 4.7002C17.8776 4.7002 13.299 9.71276 13.299 15.8742C13.299 19.8957 15.2503 23.4268 18.17 25.3951V27.8858C18.17 28.3021 17.8868 28.6573 17.4813 28.7505L10.1965 30.4217C6.65593 31.1868 5.43755 34.3841 5.0263 36.2219C4.82343 37.1293 4.70456 39.1736 4.7002 41.8293C4.69997 41.9541 4.74931 42.0739 4.83766 42.162C4.92579 42.2506 5.04535 42.3002 5.1702 42.3002H41.8396C41.9644 42.3002 42.084 42.2506 42.1721 42.1625C42.2603 42.0739 42.3098 41.9541 42.3096 41.8297C42.3059 39.1745 42.1873 37.1307 41.9842 36.2214C41.5729 34.3841 40.3546 31.1868 36.8183 30.4226ZM14.239 15.8742C14.239 10.231 18.3958 5.6402 23.5052 5.6402C28.6147 5.6402 32.7714 10.231 32.7714 15.8742C32.7714 21.5174 28.6147 26.1081 23.5052 26.1081C18.3958 26.1081 14.239 21.5174 14.239 15.8742ZM23.5052 27.0481C25.0364 27.0481 26.4888 26.6746 27.7935 26.0103V27.8826C27.7935 28.5579 28.1578 29.1503 28.719 29.4674C27.4661 31.0729 25.5574 32.0258 23.5025 32.0258C21.4285 32.0258 19.5103 31.0598 18.2583 29.4319C18.7786 29.1057 19.11 28.5313 19.11 27.8858V25.9573C20.4419 26.656 21.9324 27.0481 23.5052 27.0481ZM5.64226 41.3602C5.65878 39.0313 5.7694 37.2064 5.94381 36.427C6.30572 34.8082 7.36575 31.9951 10.401 31.3392L17.3169 29.7526C18.7367 31.7684 21.0262 32.9658 23.5025 32.9658C25.9672 32.9658 28.2559 31.7738 29.6766 29.7689L36.6152 31.3406C39.6447 31.9951 40.7048 34.8082 41.0667 36.4266C41.2413 37.2073 41.3517 39.0322 41.3678 41.3602H5.64226Z" fill="#0D2273"/>
<path d="M27.0158 21.6203C27.1891 21.4271 27.1728 21.1301 26.9795 20.9566C26.7861 20.7836 26.4891 20.8001 26.3159 20.9933C25.5771 21.8177 24.5788 22.2716 23.505 22.2716C22.4312 22.2716 21.433 21.8177 20.694 20.9933C20.521 20.8001 20.2235 20.7836 20.0303 20.9566C19.8371 21.1301 19.8208 21.4271 19.994 21.6203C20.9003 22.6315 22.1799 23.2116 23.505 23.2116C24.8301 23.2116 26.1098 22.6315 27.0158 21.6203Z" fill="#0D2273"/>
</svg>
