<svg width="66" height="63" viewBox="0 0 66 63" fill="none" xmlns="http://www.w3.org/2000/svg">
<path d="M58.6552 18.6828V6.51724H41.6017L32.5862 0L23.5707 6.51724H6.51724V18.6828L0 23.3534V63H65.1724V23.4621L58.6552 18.6828ZM58.6552 21.3983L62.131 23.8966L58.6552 26.3948V21.3983ZM32.5862 2.71552L37.9086 6.51724H27.2638L32.5862 2.71552ZM8.68966 8.68966H56.4828V27.9155L32.5862 45.0776L8.68966 27.9155V8.68966ZM6.51724 21.3983V26.3948L3.04138 23.8966L6.51724 21.3983ZM63 60.8276H2.17241V25.9603L32.5862 47.7931L63 25.9603V60.8276Z" fill="#2EDBAD"/>
<path d="M49.9657 17.3794H15.207V19.5518H49.9657V17.3794Z" fill="#2EDBAD"/>
<path d="M43.4487 28.2415H21.7246V30.4139H43.4487V28.2415Z" fill="#2EDBAD"/>
</svg>
