<svg width="55" height="63" viewBox="0 0 55 63" fill="none" xmlns="http://www.w3.org/2000/svg">
<path d="M41.2209 62.6175H3.84263C1.74665 62.6175 0 60.8709 0 58.7749V10.742C0 8.64606 1.74665 6.89941 3.84263 6.89941H7.51059C8.20925 6.89941 8.82058 7.51074 8.82058 8.2094C8.82058 8.90806 8.20925 9.51939 7.51059 9.51939H3.84263C3.14397 9.51939 2.61997 10.0434 2.61997 10.742V58.7749C2.61997 59.4735 3.14397 59.9975 3.84263 59.9975H41.2209C41.9196 59.9975 42.4436 59.4735 42.4436 58.7749V42.1817C42.4436 41.4831 43.0549 40.8717 43.7536 40.8717C44.4522 40.8717 45.0635 41.4831 45.0635 42.1817V58.7749C45.0635 60.9582 43.4042 62.6175 41.2209 62.6175Z" fill="#2EDBAD"/>
<path d="M43.7538 15.5453C43.0551 15.5453 42.4438 14.934 42.4438 14.2353V10.742C42.4438 10.0434 41.9198 9.51939 41.2211 9.51939H37.5532C36.8545 9.51939 36.2432 8.90806 36.2432 8.2094C36.2432 7.51074 36.8545 6.89941 37.5532 6.89941H41.2211C43.3171 6.89941 45.0637 8.64606 45.0637 10.742V14.2353C45.0637 14.934 44.5397 15.5453 43.7538 15.5453Z" fill="#2EDBAD"/>
<path d="M31.0898 14.8465H13.9727C12.6627 14.8465 11.5273 13.7985 11.5273 12.4012V5.93861C11.5273 4.62862 12.5753 3.4933 13.9727 3.4933H17.9026C18.5139 1.48465 20.3479 0 22.5312 0C24.7145 0 26.6359 1.48465 27.1598 3.4933H31.0025C32.3125 3.4933 33.4478 4.54129 33.4478 5.93861V12.4012C33.5351 13.7985 32.4871 14.8465 31.0898 14.8465ZM14.2346 12.2265H30.9151V6.11327H26.1119C25.4132 6.11327 24.8019 5.50194 24.8019 4.80328C24.8019 3.58063 23.8412 2.61997 22.6186 2.61997C21.3959 2.61997 20.4353 3.58063 20.4353 4.80328C20.4353 5.50194 19.8239 6.11327 19.1253 6.11327H14.2346V12.2265Z" fill="#2EDBAD"/>
<path d="M17.2044 41.4829H8.38379V32.6624H17.2044V41.4829ZM11.0038 38.863H14.5844V35.2823H11.0038V38.863Z" fill="#2EDBAD"/>
<path d="M27.9461 38.339H22.3569C21.6582 38.339 21.0469 37.7276 21.0469 37.029C21.0469 36.3303 21.6582 35.719 22.3569 35.719H27.9461C28.6448 35.719 29.2561 36.3303 29.2561 37.029C29.2561 37.7276 28.6448 38.339 27.9461 38.339Z" fill="#2EDBAD"/>
<path d="M17.2044 54.4954H8.38379V45.6748H17.2044V54.4954ZM11.0038 51.8754H14.5844V48.2948H11.0038V51.8754Z" fill="#2EDBAD"/>
<path d="M17.2044 28.4705H8.38379V19.6499H17.2044V28.4705ZM11.0038 25.8505H14.5844V22.2699H11.0038V25.8505Z" fill="#2EDBAD"/>
<path d="M35.3698 22.7938H22.2699C21.5713 22.7938 20.96 22.1825 20.96 21.4838C20.96 20.7852 21.5713 20.1738 22.2699 20.1738H35.3698C36.0685 20.1738 36.6798 20.7852 36.6798 21.4838C36.6798 22.1825 36.1558 22.7938 35.3698 22.7938Z" fill="#2EDBAD"/>
<path d="M31.9634 27.859H22.3569C21.6582 27.859 21.0469 27.2477 21.0469 26.549C21.0469 25.8503 21.6582 25.239 22.3569 25.239H32.0508C32.7494 25.239 33.3608 25.8503 33.3608 26.549C33.3608 27.2477 32.7494 27.859 31.9634 27.859Z" fill="#2EDBAD"/>
<path d="M28.1211 52.4868C27.8591 52.4868 27.5971 52.3994 27.4225 52.2248C26.9858 51.9628 26.7238 51.3515 26.8985 50.8275L28.4704 44.1902C28.4704 44.0155 28.5578 43.8409 28.6451 43.7535L44.8016 20.0864C45.2383 19.4751 46.0243 19.3005 46.6356 19.7371C47.2469 20.1738 47.4216 20.9598 46.9849 21.5711L30.8284 45.1509L30.1298 48.2075L32.7497 46.4608L50.2162 20.8724L47.2469 18.8638C46.9849 18.6891 46.7229 18.3398 46.7229 17.9905C46.6356 17.6411 46.7229 17.2918 46.8976 17.0298L48.5569 14.4972C48.9936 13.8858 49.7796 13.7112 50.3909 14.1478L54.4082 16.9425C55.0195 17.3791 55.1942 18.1651 54.7575 18.7765C54.3208 19.3878 53.5349 19.5624 52.9235 19.1258L49.9542 17.1171L49.7796 17.3791L52.7489 19.3878C53.0109 19.5624 53.2729 19.9118 53.2729 20.2611C53.3602 20.6104 53.2729 20.9598 53.0982 21.2218L34.7584 48.0328C34.671 48.2075 34.5837 48.2948 34.4091 48.3822L28.8198 52.3121C28.6451 52.3994 28.3831 52.4868 28.1211 52.4868Z" fill="#2EDBAD"/>
</svg>
