<svg width="75" height="68" viewBox="0 0 75 68" fill="none" xmlns="http://www.w3.org/2000/svg">
<path d="M71.8236 13.7238H71.0767V10.6941C71.0767 4.79735 66.2795 0 60.3826 0C54.4859 0 49.6893 4.7975 49.6893 10.6941V13.7238H48.9424C47.2408 13.7238 45.8472 15.0698 45.77 16.7525H19.3905H18.3381H8.80355C6.8496 16.7525 5.2598 18.3426 5.2598 20.2964V58.2846H1.1039C0.494384 58.2846 0 58.7789 0 59.3885V62.1443C0 64.8801 2.22612 67.1064 4.96215 67.1064H70.0379C72.7737 67.1064 75 64.8803 75 62.1443V59.3885C75 58.7789 74.5056 58.2846 73.8961 58.2846H69.7395V41.0069C72.6623 40.8771 74.9999 38.4593 74.9999 35.5048V33.5532V33.0001V16.8997C74.9999 15.1489 73.5747 13.7238 71.8236 13.7238ZM51.8965 10.6941C51.8965 6.0142 55.7035 2.20722 60.3826 2.20722C65.0625 2.20722 68.8695 6.0142 68.8695 10.6941V13.7238H66.0734V10.6941C66.0734 7.55623 63.5206 5.00331 60.3826 5.00331C57.2455 5.00331 54.6926 7.55623 54.6926 10.6941V13.7238H51.8965V10.6941ZM63.8663 10.6941V13.7238H56.9V10.6941C56.9 8.77293 58.4625 7.21053 60.3828 7.21053C62.3038 7.21053 63.8663 8.77381 63.8663 10.6941ZM51.274 41.0132H63.1179V53.8697H11.8821V23.3749H45.7663V35.5048C45.7663 38.542 48.2368 41.0132 51.274 41.0132ZM7.46761 20.2964C7.46761 19.5594 8.06746 18.9597 8.80355 18.9597H18.3381H19.3905H45.7663V21.167H10.7789C10.1691 21.167 9.67483 21.6613 9.67483 22.2709V54.9736C9.67483 55.5831 10.1692 56.0775 10.7789 56.0775H64.2217C64.8315 56.0775 65.325 55.5831 65.325 54.9736V41.0132H67.5322V58.2847H18.9706H17.9466H7.46761V20.2964ZM72.7926 60.4918V62.1443C72.7926 63.6632 71.5567 64.8992 70.0377 64.8992H4.96215C3.44326 64.8992 2.20722 63.6633 2.20722 62.1443V60.4918H17.9466H18.9706H72.7926ZM72.7926 35.5048C72.7926 37.3252 71.3118 38.8054 69.4922 38.8054H51.274C49.4545 38.8054 47.9735 37.3252 47.9735 35.5048V16.8997C47.9735 16.3658 48.4085 15.9307 48.9425 15.9307H71.8238C72.358 15.9307 72.7928 16.3656 72.7928 16.8997V33.0001V33.5532L72.7926 35.5048Z" fill="#2EDBAD"/>
<path d="M64.8228 23.4551C64.5792 21.4203 62.9245 19.7807 60.8875 19.5557C59.6165 19.4152 58.3453 19.8205 57.3995 20.6672C56.4533 21.5156 55.9102 22.7295 55.9102 23.9998C55.9102 25.1489 56.3404 26.2299 57.1241 27.0624L56.445 29.2633C56.2252 29.9745 56.3534 30.7258 56.7952 31.3248C57.237 31.9229 57.9174 32.2662 58.6614 32.2662H62.1045C62.8482 32.2662 63.5289 31.9229 63.9706 31.3248C64.4124 30.7258 64.5397 29.9743 64.3208 29.2633L63.6419 27.0624C64.5518 26.0941 64.9813 24.7887 64.8228 23.4551ZM61.4818 27.5481L62.2112 29.914C62.2159 29.927 62.228 29.9683 62.1946 30.0132C62.1611 30.0589 62.1183 30.0589 62.1045 30.0589H58.6614C58.6475 30.0589 58.605 30.0589 58.5713 30.0132C58.5378 29.9682 58.5498 29.927 58.5545 29.914L59.2838 27.549C59.4952 26.8639 59.3054 26.1199 58.7887 25.6079C58.3561 25.1792 58.118 24.6085 58.118 23.9997C58.118 23.3565 58.3928 22.741 58.8727 22.3112C59.2929 21.9344 59.8208 21.7345 60.3816 21.7345C60.4687 21.7345 60.5572 21.7399 60.6448 21.749C61.6733 21.8628 62.5087 22.6898 62.6307 23.716C62.7152 24.4225 62.4773 25.1112 61.9784 25.6072C61.4613 26.1199 61.2704 26.8638 61.4818 27.5481Z" fill="#2EDBAD"/>
</svg>
