<svg width="61" height="59" viewBox="0 0 61 59" fill="none" xmlns="http://www.w3.org/2000/svg">
<path d="M18.3479 58.3433C15.0303 58.3433 12.3291 55.6421 12.3291 52.3244V35.3833C12.3291 34.8374 12.7715 34.395 13.3173 34.395C13.8632 34.395 14.3056 34.8374 14.3056 35.3833V52.3291C14.3056 54.5597 16.1173 56.3715 18.3479 56.3715C20.5785 56.3715 22.3903 54.5597 22.3903 52.3291V35.3833C22.3903 34.8374 22.8326 34.395 23.3785 34.395C23.9244 34.395 24.3667 34.8374 24.3667 35.3833V52.3291C24.3667 55.6468 21.6656 58.3433 18.3479 58.3433Z" fill="#2EDBAD"/>
<path d="M28.6352 36.3715H10.8376C7.68465 36.3715 5.11523 33.8068 5.11523 30.6492V15.2609C5.11523 12.108 7.67994 9.53857 10.8376 9.53857H28.6305C29.1764 9.53857 29.6188 9.98093 29.6188 10.5268V35.3833C29.6235 35.9292 29.1811 36.3715 28.6352 36.3715ZM10.8376 11.5198C8.7717 11.5198 7.0917 13.1998 7.0917 15.2656V30.6539C7.0917 32.7197 8.7717 34.3997 10.8376 34.3997H27.6423V11.5198H10.8376Z" fill="#2EDBAD"/>
<path d="M54.7251 45.915C54.6122 45.915 54.4945 45.8962 54.3863 45.8538L28.2969 36.3103C27.9063 36.1691 27.6475 35.7973 27.6475 35.3832V10.5315C27.6475 10.1173 27.9063 9.74558 28.2969 9.6044L54.3863 0.0608694C54.6875 -0.0520718 55.0263 -0.00501301 55.2898 0.178516C55.5533 0.362046 55.7133 0.667929 55.7133 0.987929V44.9268C55.7133 45.2515 55.5581 45.5526 55.2898 45.7362C55.1204 45.8538 54.9228 45.915 54.7251 45.915ZM29.6239 34.6915L53.7369 43.515V2.39969L29.6239 11.2232V34.6915Z" fill="#2EDBAD"/>
<path d="M49.4921 43.9998C48.9463 43.9998 48.5039 43.5575 48.5039 43.0116V2.89864C48.5039 2.35275 48.9463 1.9104 49.4921 1.9104C50.038 1.9104 50.4804 2.35275 50.4804 2.89864V43.0116C50.4804 43.5575 50.038 43.9998 49.4921 43.9998Z" fill="#2EDBAD"/>
<path d="M54.7203 28.9739C54.1885 28.9739 53.7509 28.5503 53.732 28.0186C53.7132 27.4727 54.1415 27.0162 54.6873 26.9974C56.8709 26.9268 58.6262 25.0868 58.5932 22.8986C58.565 20.7809 56.8238 18.9974 54.7109 18.9174C54.7062 18.9174 54.7015 18.9174 54.6967 18.9174C54.1603 18.908 53.732 18.4703 53.732 17.9292C53.732 17.3833 54.1744 16.9409 54.7203 16.9409C54.7344 16.9409 54.7485 16.9409 54.7626 16.9409C54.7673 16.9409 54.772 16.9409 54.7767 16.9409C56.3203 16.9974 57.765 17.6421 58.852 18.7527C59.9391 19.868 60.5509 21.3268 60.5697 22.8703C60.5932 24.4609 60.0003 25.9715 58.8991 27.1197C57.8026 28.2633 56.3297 28.9221 54.7485 28.9739C54.7438 28.9739 54.7344 28.9739 54.7203 28.9739Z" fill="#2EDBAD"/>
<path d="M6.10353 29.2187H3.57647C1.60471 29.2187 0 27.614 0 25.6422V20.2681C0 18.2964 1.60471 16.6917 3.57647 16.6917H6.10353C6.64941 16.6917 7.09176 17.134 7.09176 17.6799V28.2305C7.09176 28.7764 6.64941 29.2187 6.10353 29.2187ZM3.57647 18.6681C2.69647 18.6681 1.97647 19.3881 1.97647 20.2681V25.6422C1.97647 26.5222 2.69647 27.2422 3.57647 27.2422H5.11529V18.6681H3.57647Z" fill="#2EDBAD"/>
</svg>
